<svg width="489" height="242" viewBox="0 0 489 242" fill="none" xmlns="http://www.w3.org/2000/svg">
<path d="M103.21 45V4.54444H125.371V7.00001H106.033V22.286H122.24V24.7415H106.033V42.5444H125.985V45H103.21ZM138.118 45.4911C137.3 45.4911 136.625 45.3274 136.093 45C135.561 44.6726 135.151 44.161 134.865 43.4653C134.619 42.7695 134.497 41.8896 134.497 40.8255V0.861079H137.198V41.1939C137.198 41.8896 137.32 42.3807 137.566 42.6672C137.852 42.9537 138.2 43.0969 138.61 43.0969C138.732 43.0969 138.855 43.0969 138.978 43.0969C139.142 43.056 139.346 43.0151 139.592 42.9742L140.083 45.1228C139.796 45.2456 139.49 45.3274 139.162 45.3683C138.876 45.4502 138.528 45.4911 138.118 45.4911ZM161.784 45V8.96447C161.784 7.00001 162.071 5.36296 162.644 4.05332C163.216 2.74368 164.035 1.76145 165.099 1.10664C166.204 0.451818 167.534 0.124409 169.089 0.124409C169.785 0.124409 170.501 0.206261 171.238 0.369963C172.016 0.533668 172.732 0.779226 173.387 1.10664L172.589 3.19387C171.361 2.70276 170.194 2.4572 169.089 2.4572C167.534 2.4572 166.368 3.05063 165.59 4.23749C164.854 5.38343 164.485 7.02047 164.485 9.14864V45H161.784ZM157.425 17.8659V15.7787L161.845 15.5331H171.299V17.8659H157.425ZM188.054 45.7367C185.517 45.7367 183.225 45.1228 181.179 43.895C179.132 42.6672 177.495 40.9074 176.268 38.6155C175.04 36.2827 174.426 33.5202 174.426 30.328C174.426 27.0948 175.04 24.3323 176.268 22.0404C177.495 19.7076 179.071 17.9273 180.995 16.6995C182.959 15.4308 185.046 14.7965 187.256 14.7965C189.589 14.7965 191.594 15.3285 193.272 16.3926C194.991 17.4567 196.301 19.0119 197.201 21.0582C198.102 23.0635 198.552 25.5191 198.552 28.4249C198.552 28.7523 198.531 29.1206 198.491 29.5299C198.491 29.8982 198.45 30.287 198.368 30.6963H176.083V28.3635H195.974C195.974 24.5983 195.196 21.7948 193.641 19.9532C192.086 18.0706 189.978 17.1292 187.318 17.1292C185.681 17.1292 184.085 17.5999 182.529 18.5412C180.974 19.4825 179.685 20.9354 178.662 22.8998C177.68 24.8234 177.188 27.2585 177.188 30.2052C177.188 32.9063 177.68 35.2596 178.662 37.2649C179.644 39.2294 180.974 40.7437 182.652 41.8078C184.33 42.8309 186.213 43.3425 188.3 43.3425C189.896 43.3425 191.349 43.1379 192.659 42.7286C194.009 42.2784 195.196 41.685 196.219 40.9483L197.324 42.8514C196.178 43.629 194.889 44.3043 193.457 44.8772C192.024 45.4502 190.223 45.7367 188.054 45.7367ZM206.557 45V15.5331H208.89L209.135 20.0759H209.32C210.834 18.5617 212.389 17.3134 213.985 16.3312C215.622 15.308 217.443 14.7965 219.449 14.7965C222.518 14.7965 224.769 15.7378 226.202 17.6204C227.634 19.462 228.35 22.286 228.35 26.0921V45H225.649V26.4604C225.649 23.3091 225.117 20.9968 224.053 19.5234C223.03 18.0092 221.311 17.252 218.896 17.252C217.136 17.252 215.54 17.7227 214.108 18.664C212.716 19.5644 211.1 20.9354 209.258 22.7771V45H206.557ZM249.973 45.7367C247.64 45.7367 245.451 45.1432 243.405 43.9564C241.399 42.7286 239.783 40.9688 238.555 38.6769C237.368 36.3441 236.774 33.5611 236.774 30.328C236.774 27.0539 237.368 24.2504 238.555 21.9176C239.783 19.5848 241.399 17.825 243.405 16.6381C245.451 15.4103 247.64 14.7965 249.973 14.7965C252.347 14.7965 254.536 15.4103 256.542 16.6381C258.547 17.825 260.164 19.5848 261.392 21.9176C262.619 24.2504 263.233 27.0539 263.233 30.328C263.233 33.5611 262.619 36.3441 261.392 38.6769C260.164 40.9688 258.547 42.7286 256.542 43.9564C254.536 45.1432 252.347 45.7367 249.973 45.7367ZM249.973 43.3425C251.979 43.3425 253.759 42.8104 255.314 41.7464C256.91 40.6414 258.158 39.1066 259.059 37.1422C259.959 35.1777 260.409 32.9063 260.409 30.328C260.409 27.7496 259.959 25.4782 259.059 23.5137C258.158 21.5084 256.91 19.9532 255.314 18.8481C253.759 17.7431 251.979 17.1906 249.973 17.1906C248.009 17.1906 246.249 17.7431 244.694 18.8481C243.138 19.9532 241.89 21.5084 240.949 23.5137C240.049 25.4782 239.598 27.7496 239.598 30.328C239.598 32.9063 240.049 35.1777 240.949 37.1422C241.89 39.1066 243.138 40.6414 244.694 41.7464C246.249 42.8104 248.009 43.3425 249.973 43.3425ZM272.083 45V15.5331H274.416L274.661 20.0759H274.845C276.155 18.5617 277.608 17.3134 279.204 16.3312C280.841 15.308 282.478 14.7965 284.115 14.7965C286.53 14.7965 288.351 15.349 289.579 16.454C290.848 17.518 291.748 18.9709 292.28 20.8126C293.958 18.93 295.615 17.4567 297.253 16.3926C298.931 15.3285 300.608 14.7965 302.286 14.7965C305.233 14.7965 307.443 15.7378 308.916 17.6204C310.39 19.462 311.127 22.286 311.127 26.0921V45H308.364V26.4604C308.364 23.3091 307.832 20.9968 306.768 19.5234C305.745 18.0092 304.087 17.252 301.795 17.252C300.404 17.252 298.992 17.7227 297.559 18.664C296.127 19.5644 294.592 20.9354 292.955 22.7771V45H290.254V26.4604C290.254 23.3091 289.722 20.9968 288.658 19.5234C287.594 18.0092 285.916 17.252 283.624 17.252C281.005 17.252 278.058 19.0937 274.784 22.7771V45H272.083ZM333.075 45.7367C330.537 45.7367 328.245 45.1228 326.199 43.895C324.153 42.6672 322.516 40.9074 321.288 38.6155C320.06 36.2827 319.446 33.5202 319.446 30.328C319.446 27.0948 320.06 24.3323 321.288 22.0404C322.516 19.7076 324.091 17.9273 326.015 16.6995C327.979 15.4308 330.067 14.7965 332.277 14.7965C334.609 14.7965 336.615 15.3285 338.293 16.3926C340.012 17.4567 341.321 19.0119 342.222 21.0582C343.122 23.0635 343.572 25.5191 343.572 28.4249C343.572 28.7523 343.552 29.1206 343.511 29.5299C343.511 29.8982 343.47 30.287 343.388 30.6963H321.104V28.3635H340.994C340.994 24.5983 340.216 21.7948 338.661 19.9532C337.106 18.0706 334.998 17.1292 332.338 17.1292C330.701 17.1292 329.105 17.5999 327.55 18.5412C325.994 19.4825 324.705 20.9354 323.682 22.8998C322.7 24.8234 322.209 27.2585 322.209 30.2052C322.209 32.9063 322.7 35.2596 323.682 37.2649C324.664 39.2294 325.994 40.7437 327.672 41.8078C329.35 42.8309 331.233 43.3425 333.32 43.3425C334.916 43.3425 336.369 43.1379 337.679 42.7286C339.029 42.2784 340.216 41.685 341.239 40.9483L342.344 42.8514C341.198 43.629 339.909 44.3043 338.477 44.8772C337.044 45.4502 335.244 45.7367 333.075 45.7367ZM351.577 45V15.5331H353.91L354.156 20.0759H354.34C355.854 18.5617 357.409 17.3134 359.005 16.3312C360.642 15.308 362.464 14.7965 364.469 14.7965C367.538 14.7965 369.789 15.7378 371.222 17.6204C372.654 19.462 373.37 22.286 373.37 26.0921V45H370.669V26.4604C370.669 23.3091 370.137 20.9968 369.073 19.5234C368.05 18.0092 366.331 17.252 363.917 17.252C362.157 17.252 360.561 17.7227 359.128 18.664C357.737 19.5644 356.12 20.9354 354.278 22.7771V45H351.577ZM394.993 45.7367C392.661 45.7367 390.471 45.1432 388.425 43.9564C386.419 42.7286 384.803 40.9688 383.575 38.6769C382.388 36.3441 381.795 33.5611 381.795 30.328C381.795 27.0539 382.388 24.2504 383.575 21.9176C384.803 19.5848 386.419 17.825 388.425 16.6381C390.471 15.4103 392.661 14.7965 394.993 14.7965C397.367 14.7965 399.557 15.4103 401.562 16.6381C403.567 17.825 405.184 19.5848 406.412 21.9176C407.64 24.2504 408.254 27.0539 408.254 30.328C408.254 33.5611 407.64 36.3441 406.412 38.6769C405.184 40.9688 403.567 42.7286 401.562 43.9564C399.557 45.1432 397.367 45.7367 394.993 45.7367ZM394.993 43.3425C396.999 43.3425 398.779 42.8104 400.334 41.7464C401.93 40.6414 403.179 39.1066 404.079 37.1422C404.979 35.1777 405.43 32.9063 405.43 30.328C405.43 27.7496 404.979 25.4782 404.079 23.5137C403.179 21.5084 401.93 19.9532 400.334 18.8481C398.779 17.7431 396.999 17.1906 394.993 17.1906C393.029 17.1906 391.269 17.7431 389.714 18.8481C388.159 19.9532 386.91 21.5084 385.969 23.5137C385.069 25.4782 384.619 27.7496 384.619 30.328C384.619 32.9063 385.069 35.1777 385.969 37.1422C386.91 39.1066 388.159 40.6414 389.714 41.7464C391.269 42.8104 393.029 43.3425 394.993 43.3425Z" fill="#D9058D"/>
<path d="M130.05 131.822C136.792 135.28 141.921 140.236 145.437 146.69C149.01 153.087 150.796 160.003 150.796 167.437C150.796 172.854 149.903 178.04 148.116 182.996C146.388 187.952 143.881 192.303 140.596 196.049C137.369 199.737 133.45 202.676 128.84 204.866C124.23 207.056 119.043 208.151 113.28 208.151C108.324 208.151 103.57 207.431 99.0171 205.99C94.4644 204.607 90.1135 202.734 85.9642 200.371C81.8726 198.008 77.9539 195.271 74.208 192.159C70.5198 188.99 66.9469 185.705 63.4892 182.305L62.7976 181.613C61.7603 180.518 60.4925 179.366 58.9941 178.156C57.5534 176.888 56.0263 175.735 54.4127 174.698C52.7991 173.66 51.1279 172.796 49.399 172.105C47.7278 171.355 46.0566 170.981 44.3853 170.981C40.5242 170.981 37.4987 172.191 35.3089 174.611C33.119 177.032 32.024 180.115 32.024 183.861C32.024 187.203 32.8597 190.027 34.5309 192.332C36.2597 194.637 39.0259 195.79 42.8294 195.79C42.3683 194.81 42.1378 193.744 42.1378 192.591C42.1378 189.768 43.1751 187.347 45.2498 185.33C47.382 183.313 50.0041 182.305 53.116 182.305C56.1703 182.305 58.7348 183.313 60.8094 185.33C62.9417 187.347 64.0078 189.768 64.0078 192.591C64.0078 193.168 63.9502 193.773 63.8349 194.407C63.7197 194.983 63.5468 195.559 63.3163 196.136L63.1434 196.481C62.4518 198.383 61.3281 200.112 59.7721 201.668C58.2738 203.281 56.5737 204.665 54.672 205.817C52.7703 207.027 50.7533 207.949 48.621 208.583C46.4888 209.217 44.5006 209.534 42.6565 209.534C38.853 209.534 35.3665 208.9 32.1969 207.632C29.0274 206.422 26.29 204.665 23.9849 202.359C21.6797 200.112 19.8644 197.432 18.539 194.32C17.2712 191.151 16.6373 187.664 16.6373 183.861C16.6373 179.884 17.3288 176.283 18.7119 173.055C20.1526 169.771 22.112 166.976 24.59 164.67C27.068 162.365 30.007 160.579 33.4071 159.311C36.8648 157.986 40.5242 157.323 44.3853 157.323C47.4396 157.323 50.2634 157.784 52.8567 158.706C55.5076 159.57 57.9568 160.723 60.2043 162.164C62.5095 163.547 64.7282 165.189 66.8604 167.091C68.9927 168.993 71.0673 171.01 73.0843 173.142L73.7758 173.833C74.3521 174.41 74.6114 174.669 74.5538 174.611C74.4962 174.554 74.842 174.813 75.5911 175.389V103.037L72.5656 99.6656L90.9779 93.7875V124.561H90.805C93.7441 125.887 97.4035 126.549 101.783 126.549H105.673H106.019C110.399 126.203 113.943 125.195 116.651 123.524C119.36 121.853 121.435 119.98 122.875 117.905C124.374 115.773 125.382 113.525 125.901 111.162C126.419 108.8 126.679 106.667 126.679 104.766C126.679 99.4639 125.526 95.2859 123.221 92.2315C120.973 89.1196 118.294 86.8433 115.182 85.4026C112.128 83.9042 109.044 82.9534 105.932 82.55C102.821 82.1466 100.429 81.9449 98.7577 81.9449H94.5221C91.1796 81.9449 87.7507 82.4347 84.2354 83.4144C80.7201 84.3365 77.4352 85.7772 74.3809 87.7365C71.3843 89.6383 68.8486 92.0587 66.774 94.9977C64.6994 97.8791 63.4315 101.193 62.9705 104.939C65.5638 105.4 67.696 106.523 69.3673 108.31C71.0385 110.096 71.8741 112.171 71.8741 114.534C71.8741 117.242 70.7792 119.547 68.5893 121.449C66.3994 123.293 63.7773 124.215 60.723 124.215C57.7263 124.215 55.1619 123.351 53.0296 121.622C50.955 119.836 49.86 117.588 49.7448 114.88C49.6295 113.9 49.5143 113.007 49.399 112.2C49.3414 111.393 49.3126 110.5 49.3126 109.52C49.3126 103.296 50.5228 97.6486 52.9432 92.5773C55.3636 87.506 58.6196 83.1839 62.7112 79.6109C66.8028 75.9803 71.5859 73.1854 77.0606 71.226C82.5353 69.2666 88.3558 68.2869 94.5221 68.2869H98.7577C105.385 68.2869 111.378 69.1514 116.738 70.8802C122.097 72.5514 126.65 75.0006 130.396 78.2278C134.199 81.3974 137.138 85.2297 139.213 89.7247C141.288 94.2197 142.325 99.2334 142.325 104.766C142.325 109.952 141.316 114.937 139.299 119.72C137.282 124.503 134.199 128.537 130.05 131.822ZM111.465 195.271C115.384 195.271 118.812 194.493 121.751 192.937C124.691 191.381 127.169 189.335 129.186 186.8C131.203 184.264 132.73 181.325 133.767 177.983C134.862 174.583 135.409 171.067 135.409 167.437C135.409 158.331 132.701 151.56 127.284 147.123C121.924 142.628 115.009 140.322 106.538 140.207C105.961 140.207 105.356 140.236 104.722 140.294C104.146 140.351 103.57 140.38 102.993 140.38H102.129C98.3255 140.611 94.6085 140.956 90.9779 141.417V188.356L90.4593 188.01C93.5136 190.085 96.8272 191.813 100.4 193.197C104.031 194.58 107.719 195.271 111.465 195.271ZM221.766 197H205.601V187.232C202.547 190.805 199.031 193.485 195.055 195.271C191.078 197 186.843 197.864 182.348 197.864H182.002C178.199 197.864 174.626 197.173 171.283 195.79C167.998 194.407 165.117 192.534 162.639 190.171C160.218 187.751 158.288 184.956 156.847 181.786C155.464 178.559 154.773 175.13 154.773 171.499C154.773 168.849 155.147 166.284 155.896 163.806C156.645 161.328 157.712 159.052 159.095 156.977C160.535 154.845 162.264 152.943 164.281 151.272C166.298 149.601 168.546 148.246 171.024 147.209L173.703 146.258C176.815 145.221 180.043 144.126 183.385 142.973C186.728 141.763 189.868 140.467 192.807 139.083C195.804 137.643 198.426 136.116 200.674 134.502C202.921 132.888 204.506 131.16 205.428 129.315C205.313 128.336 205.025 127.327 204.564 126.29C204.102 125.253 203.325 124.302 202.23 123.437C201.192 122.573 199.78 121.881 197.994 121.363C196.207 120.786 193.873 120.498 190.992 120.498C187.534 120.498 184.826 120.873 182.866 121.622C180.965 122.371 179.524 123.322 178.544 124.475C179.351 126.376 179.754 128.048 179.754 129.488C179.754 130.756 179.466 131.966 178.89 133.119C178.371 134.214 177.651 135.194 176.729 136.058C175.807 136.865 174.712 137.499 173.444 137.96C172.234 138.421 170.937 138.651 169.554 138.651C168.056 138.651 166.673 138.421 165.405 137.96C164.137 137.499 163.013 136.865 162.034 136.058C161.112 135.194 160.363 134.214 159.786 133.119C159.268 131.966 159.008 130.756 159.008 129.488C159.008 126.031 159.729 122.947 161.169 120.239C162.61 117.473 164.685 115.139 167.393 113.237C170.159 111.335 173.531 109.866 177.507 108.829C181.483 107.791 185.978 107.273 190.992 107.273C200.328 107.273 207.503 109.434 212.516 113.756C217.53 118.02 220.037 124.129 220.037 132.082V192.332L221.766 197ZM205.601 148.073C203.123 148.996 200.674 149.946 198.253 150.926C195.89 151.848 193.441 152.799 190.906 153.779C188.543 154.758 186.209 155.709 183.904 156.631C181.599 157.553 179.236 158.475 176.815 159.397C174.568 160.377 172.724 161.962 171.283 164.152C169.9 166.284 169.208 168.733 169.208 171.499C169.208 173.286 169.525 174.957 170.159 176.513C170.793 178.069 171.658 179.452 172.753 180.662C173.905 181.815 175.259 182.737 176.815 183.429C178.371 184.12 180.043 184.466 181.829 184.466H182.348C185.921 184.466 189.119 183.918 191.943 182.823C194.824 181.671 197.274 179.884 199.291 177.464C201.308 174.986 202.863 171.845 203.958 168.042C205.053 164.238 205.601 159.657 205.601 154.297V148.073ZM265.765 107.791C267.955 107.791 269.914 108.079 271.643 108.656C273.372 109.232 274.841 110.01 276.052 110.99C277.262 111.969 278.184 113.122 278.818 114.447C279.509 115.773 279.855 117.185 279.855 118.683C279.855 120.239 279.567 121.68 278.991 123.005C278.472 124.331 277.723 125.512 276.743 126.549C275.821 127.529 274.697 128.307 273.372 128.883C272.104 129.459 270.75 129.748 269.309 129.748C268.156 129.748 267.062 129.517 266.024 129.056C264.987 128.595 264.036 127.99 263.172 127.241C262.365 126.434 261.644 125.512 261.011 124.475C260.434 123.437 260.002 122.371 259.714 121.276C257.409 121.795 255.421 123.063 253.749 125.08C252.078 127.097 250.695 129.604 249.6 132.6C248.505 135.539 247.698 138.853 247.18 142.541C246.661 146.172 246.402 149.918 246.402 153.779L246.315 192.159L248.044 197H230.323L231.966 192.159V118.424L228.94 115.139L246.402 109.607V123.005C248.995 118.28 251.819 114.563 254.873 111.854C257.985 109.145 261.616 107.791 265.765 107.791ZM324.459 109.866C329.934 109.866 334.66 111.162 338.636 113.756C342.67 116.349 346.012 119.663 348.663 123.697C351.314 127.731 353.274 132.197 354.541 137.095C355.867 141.994 356.53 146.748 356.53 151.358C356.53 157.986 355.377 164.181 353.072 169.943C350.767 175.706 347.54 180.72 343.39 184.984C339.241 189.191 334.285 192.505 328.522 194.925C322.817 197.346 316.564 198.556 309.764 198.556C302.849 198.556 295.789 197.259 288.586 194.666L283.745 192.851V85.1433H283.831L280.806 81.6855L298.44 76.2397V183.429C300.169 184.062 301.869 184.523 303.54 184.812C305.269 185.042 307.056 185.157 308.9 185.157C313.913 185.157 318.437 184.322 322.471 182.651C326.563 180.979 330.049 178.674 332.931 175.735C335.812 172.738 338.031 169.165 339.587 165.016C341.143 160.867 341.921 156.314 341.921 151.358C341.921 149.629 341.777 147.785 341.489 145.826C341.258 143.809 340.855 141.792 340.278 139.775C339.76 137.7 339.039 135.712 338.117 133.81C337.253 131.909 336.187 130.209 334.919 128.71C333.651 127.212 332.153 125.973 330.424 124.993C328.753 124.014 326.851 123.466 324.719 123.351C325.122 124.388 325.324 125.483 325.324 126.636C325.324 128.192 325.036 129.604 324.459 130.871C323.883 132.139 323.076 133.263 322.039 134.243C321.002 135.165 319.792 135.885 318.408 136.404C317.083 136.922 315.642 137.211 314.086 137.268C312.53 137.211 311.061 136.894 309.678 136.317C308.352 135.683 307.171 134.877 306.134 133.897C305.154 132.917 304.376 131.793 303.8 130.526C303.281 129.2 303.022 127.846 303.022 126.463C303.022 123.985 303.742 121.737 305.183 119.72C306.623 117.646 308.41 115.888 310.542 114.447C312.732 113.007 315.066 111.883 317.544 111.076C320.022 110.269 322.327 109.866 324.459 109.866ZM371.311 103.728C369.928 103.728 368.603 103.469 367.335 102.95C366.125 102.374 365.059 101.625 364.137 100.703C363.272 99.7809 362.552 98.7147 361.976 97.5045C361.457 96.2367 361.198 94.9113 361.198 93.5282C361.198 92.1451 361.457 90.8485 361.976 89.6383C362.552 88.3704 363.272 87.2755 364.137 86.3534C365.059 85.4314 366.125 84.711 367.335 84.1924C368.603 83.6737 369.928 83.4144 371.311 83.4144C372.694 83.4144 373.991 83.6737 375.201 84.1924C376.411 84.711 377.478 85.4314 378.4 86.3534C379.322 87.2755 380.042 88.3704 380.561 89.6383C381.079 90.8485 381.339 92.1451 381.339 93.5282C381.339 94.9113 381.079 96.2367 380.561 97.5045C380.042 98.7147 379.322 99.7809 378.4 100.703C377.478 101.625 376.411 102.374 375.201 102.95C373.991 103.469 372.694 103.728 371.311 103.728ZM379.091 192.159L380.82 197H363.099L364.742 192.159V118.51L361.716 115.139L379.178 109.607L379.091 192.159ZM458.532 152.309C460.088 152.309 461.529 152.597 462.854 153.174C464.237 153.692 465.419 154.441 466.398 155.421C467.436 156.343 468.213 157.438 468.732 158.706C469.308 159.916 469.597 161.242 469.597 162.682C469.481 167.926 468.213 172.71 465.793 177.032C463.43 181.354 460.376 185.071 456.63 188.183C452.884 191.237 448.677 193.629 444.01 195.358C439.342 197.029 434.703 197.864 430.092 197.864C423.926 197.864 418.192 196.769 412.89 194.58C407.646 192.332 403.065 189.249 399.146 185.33C395.285 181.412 392.23 176.772 389.983 171.413C387.793 166.054 386.698 160.233 386.698 153.952C386.698 147.44 387.678 141.475 389.637 136.058C391.654 130.641 394.449 126.002 398.022 122.141C401.653 118.222 405.946 115.196 410.902 113.064C415.916 110.932 421.419 109.866 427.413 109.866C442.108 109.866 453.864 116.666 462.681 130.266L466.225 135.712L405.543 171.327C408.251 175.361 411.709 178.645 415.916 181.181C420.18 183.717 424.906 184.984 430.092 184.984C432.167 184.984 434.357 184.696 436.662 184.12C439.025 183.486 441.301 182.593 443.491 181.44C445.681 180.288 447.698 178.876 449.542 177.205C451.444 175.533 453 173.632 454.21 171.499C452.193 170.866 450.666 169.684 449.628 167.955C448.591 166.169 448.072 164.296 448.072 162.337C448.072 159.282 448.966 156.891 450.752 155.162C452.596 153.375 455.017 152.424 458.013 152.309H458.532ZM401.048 153.952C401.048 155.219 401.134 156.689 401.307 158.36L446.516 131.822C441.157 125.829 434.789 122.832 427.413 122.832C422.918 122.832 418.999 123.725 415.656 125.512C412.372 127.298 409.634 129.661 407.444 132.6C405.312 135.539 403.698 138.882 402.604 142.628C401.566 146.316 401.048 150.09 401.048 153.952Z" fill="#D9058D"/>
<path d="M123.05 131.822C129.792 135.28 134.921 140.236 138.437 146.69C142.01 153.087 143.796 160.003 143.796 167.437C143.796 172.854 142.903 178.04 141.116 182.996C139.388 187.952 136.881 192.303 133.596 196.049C130.369 199.737 126.45 202.676 121.84 204.866C117.23 207.056 112.043 208.151 106.28 208.151C101.324 208.151 96.5697 207.431 92.0171 205.99C87.4644 204.607 83.1135 202.734 78.9642 200.371C74.8726 198.008 70.9539 195.271 67.208 192.159C63.5198 188.99 59.9469 185.705 56.4892 182.305L55.7976 181.613C54.7603 180.518 53.4925 179.366 51.9941 178.156C50.5534 176.888 49.0263 175.735 47.4127 174.698C45.7991 173.66 44.1279 172.796 42.399 172.105C40.7278 171.355 39.0566 170.981 37.3853 170.981C33.5242 170.981 30.4987 172.191 28.3089 174.611C26.119 177.032 25.024 180.115 25.024 183.861C25.024 187.203 25.8597 190.027 27.5309 192.332C29.2597 194.637 32.0259 195.79 35.8294 195.79C35.3683 194.81 35.1378 193.744 35.1378 192.591C35.1378 189.768 36.1751 187.347 38.2498 185.33C40.382 183.313 43.0041 182.305 46.116 182.305C49.1703 182.305 51.7348 183.313 53.8094 185.33C55.9417 187.347 57.0078 189.768 57.0078 192.591C57.0078 193.168 56.9502 193.773 56.8349 194.407C56.7197 194.983 56.5468 195.559 56.3163 196.136L56.1434 196.481C55.4518 198.383 54.3281 200.112 52.7721 201.668C51.2738 203.281 49.5737 204.665 47.672 205.817C45.7703 207.027 43.7533 207.949 41.621 208.583C39.4888 209.217 37.5006 209.534 35.6565 209.534C31.853 209.534 28.3665 208.9 25.1969 207.632C22.0274 206.422 19.29 204.665 16.9849 202.359C14.6797 200.112 12.8644 197.432 11.539 194.32C10.2712 191.151 9.63726 187.664 9.63726 183.861C9.63726 179.884 10.3288 176.283 11.7119 173.055C13.1526 169.771 15.112 166.976 17.59 164.67C20.068 162.365 23.007 160.579 26.4071 159.311C29.8648 157.986 33.5242 157.323 37.3853 157.323C40.4396 157.323 43.2634 157.784 45.8567 158.706C48.5076 159.57 50.9568 160.723 53.2043 162.164C55.5095 163.547 57.7282 165.189 59.8604 167.091C61.9927 168.993 64.0673 171.01 66.0843 173.142L66.7758 173.833C67.3521 174.41 67.6114 174.669 67.5538 174.611C67.4962 174.554 67.842 174.813 68.5911 175.389V103.037L65.5656 99.6656L83.9779 93.7875V124.561H83.805C86.7441 125.887 90.4035 126.549 94.7832 126.549H98.6732H99.0189C103.399 126.203 106.943 125.195 109.651 123.524C112.36 121.853 114.435 119.98 115.875 117.905C117.374 115.773 118.382 113.525 118.901 111.162C119.419 108.8 119.679 106.667 119.679 104.766C119.679 99.4639 118.526 95.2859 116.221 92.2315C113.973 89.1196 111.294 86.8433 108.182 85.4026C105.128 83.9042 102.044 82.9534 98.9325 82.55C95.8205 82.1466 93.429 81.9449 91.7577 81.9449H87.5221C84.1796 81.9449 80.7507 82.4347 77.2354 83.4144C73.7201 84.3365 70.4352 85.7772 67.3809 87.7365C64.3843 89.6383 61.8486 92.0587 59.774 94.9977C57.6994 97.8791 56.4315 101.193 55.9705 104.939C58.5638 105.4 60.696 106.523 62.3673 108.31C64.0385 110.096 64.8741 112.171 64.8741 114.534C64.8741 117.242 63.7792 119.547 61.5893 121.449C59.3994 123.293 56.7773 124.215 53.723 124.215C50.7263 124.215 48.1619 123.351 46.0296 121.622C43.955 119.836 42.86 117.588 42.7448 114.88C42.6295 113.9 42.5143 113.007 42.399 112.2C42.3414 111.393 42.3126 110.5 42.3126 109.52C42.3126 103.296 43.5228 97.6486 45.9432 92.5773C48.3636 87.506 51.6196 83.1839 55.7112 79.6109C59.8028 75.9803 64.5859 73.1854 70.0606 71.226C75.5353 69.2666 81.3558 68.2869 87.5221 68.2869H91.7577C98.385 68.2869 104.378 69.1514 109.738 70.8802C115.097 72.5514 119.65 75.0006 123.396 78.2278C127.199 81.3974 130.138 85.2297 132.213 89.7247C134.288 94.2197 135.325 99.2334 135.325 104.766C135.325 109.952 134.316 114.937 132.299 119.72C130.282 124.503 127.199 128.537 123.05 131.822ZM104.465 195.271C108.384 195.271 111.812 194.493 114.751 192.937C117.691 191.381 120.169 189.335 122.186 186.8C124.203 184.264 125.73 181.325 126.767 177.983C127.862 174.583 128.409 171.067 128.409 167.437C128.409 158.331 125.701 151.56 120.284 147.123C114.924 142.628 108.009 140.322 99.5376 140.207C98.9613 140.207 98.3562 140.236 97.7223 140.294C97.146 140.351 96.5697 140.38 95.9934 140.38H95.129C91.3255 140.611 87.6085 140.956 83.9779 141.417V188.356L83.4593 188.01C86.5136 190.085 89.8272 191.813 93.4002 193.197C97.0307 194.58 100.719 195.271 104.465 195.271ZM214.766 197H198.601V187.232C195.547 190.805 192.031 193.485 188.055 195.271C184.078 197 179.843 197.864 175.348 197.864H175.002C171.199 197.864 167.626 197.173 164.283 195.79C160.998 194.407 158.117 192.534 155.639 190.171C153.218 187.751 151.288 184.956 149.847 181.786C148.464 178.559 147.773 175.13 147.773 171.499C147.773 168.849 148.147 166.284 148.896 163.806C149.645 161.328 150.712 159.052 152.095 156.977C153.535 154.845 155.264 152.943 157.281 151.272C159.298 149.601 161.546 148.246 164.024 147.209L166.703 146.258C169.815 145.221 173.043 144.126 176.385 142.973C179.728 141.763 182.868 140.467 185.807 139.083C188.804 137.643 191.426 136.116 193.674 134.502C195.921 132.888 197.506 131.16 198.428 129.315C198.313 128.336 198.025 127.327 197.564 126.29C197.102 125.253 196.325 124.302 195.23 123.437C194.192 122.573 192.78 121.881 190.994 121.363C189.207 120.786 186.873 120.498 183.992 120.498C180.534 120.498 177.826 120.873 175.866 121.622C173.965 122.371 172.524 123.322 171.544 124.475C172.351 126.376 172.754 128.048 172.754 129.488C172.754 130.756 172.466 131.966 171.89 133.119C171.371 134.214 170.651 135.194 169.729 136.058C168.807 136.865 167.712 137.499 166.444 137.96C165.234 138.421 163.937 138.651 162.554 138.651C161.056 138.651 159.673 138.421 158.405 137.96C157.137 137.499 156.013 136.865 155.034 136.058C154.112 135.194 153.363 134.214 152.786 133.119C152.268 131.966 152.008 130.756 152.008 129.488C152.008 126.031 152.729 122.947 154.169 120.239C155.61 117.473 157.685 115.139 160.393 113.237C163.159 111.335 166.531 109.866 170.507 108.829C174.483 107.791 178.978 107.273 183.992 107.273C193.328 107.273 200.503 109.434 205.516 113.756C210.53 118.02 213.037 124.129 213.037 132.082V192.332L214.766 197ZM198.601 148.073C196.123 148.996 193.674 149.946 191.253 150.926C188.89 151.848 186.441 152.799 183.906 153.779C181.543 154.758 179.209 155.709 176.904 156.631C174.599 157.553 172.236 158.475 169.815 159.397C167.568 160.377 165.724 161.962 164.283 164.152C162.9 166.284 162.208 168.733 162.208 171.499C162.208 173.286 162.525 174.957 163.159 176.513C163.793 178.069 164.658 179.452 165.753 180.662C166.905 181.815 168.259 182.737 169.815 183.429C171.371 184.12 173.043 184.466 174.829 184.466H175.348C178.921 184.466 182.119 183.918 184.943 182.823C187.824 181.671 190.274 179.884 192.291 177.464C194.308 174.986 195.863 171.845 196.958 168.042C198.053 164.238 198.601 159.657 198.601 154.297V148.073ZM258.765 107.791C260.955 107.791 262.914 108.079 264.643 108.656C266.372 109.232 267.841 110.01 269.052 110.99C270.262 111.969 271.184 113.122 271.818 114.447C272.509 115.773 272.855 117.185 272.855 118.683C272.855 120.239 272.567 121.68 271.991 123.005C271.472 124.331 270.723 125.512 269.743 126.549C268.821 127.529 267.697 128.307 266.372 128.883C265.104 129.459 263.75 129.748 262.309 129.748C261.156 129.748 260.062 129.517 259.024 129.056C257.987 128.595 257.036 127.99 256.172 127.241C255.365 126.434 254.644 125.512 254.011 124.475C253.434 123.437 253.002 122.371 252.714 121.276C250.409 121.795 248.421 123.063 246.749 125.08C245.078 127.097 243.695 129.604 242.6 132.6C241.505 135.539 240.698 138.853 240.18 142.541C239.661 146.172 239.402 149.918 239.402 153.779L239.315 192.159L241.044 197H223.323L224.966 192.159V118.424L221.94 115.139L239.402 109.607V123.005C241.995 118.28 244.819 114.563 247.873 111.854C250.985 109.145 254.616 107.791 258.765 107.791ZM317.459 109.866C322.934 109.866 327.66 111.162 331.636 113.756C335.67 116.349 339.012 119.663 341.663 123.697C344.314 127.731 346.274 132.197 347.541 137.095C348.867 141.994 349.53 146.748 349.53 151.358C349.53 157.986 348.377 164.181 346.072 169.943C343.767 175.706 340.54 180.72 336.39 184.984C332.241 189.191 327.285 192.505 321.522 194.925C315.817 197.346 309.564 198.556 302.764 198.556C295.849 198.556 288.789 197.259 281.586 194.666L276.745 192.851V85.1433H276.831L273.806 81.6855L291.44 76.2397V183.429C293.169 184.062 294.869 184.523 296.54 184.812C298.269 185.042 300.056 185.157 301.9 185.157C306.913 185.157 311.437 184.322 315.471 182.651C319.563 180.979 323.049 178.674 325.931 175.735C328.812 172.738 331.031 169.165 332.587 165.016C334.143 160.867 334.921 156.314 334.921 151.358C334.921 149.629 334.777 147.785 334.489 145.826C334.258 143.809 333.855 141.792 333.278 139.775C332.76 137.7 332.039 135.712 331.117 133.81C330.253 131.909 329.187 130.209 327.919 128.71C326.651 127.212 325.153 125.973 323.424 124.993C321.753 124.014 319.851 123.466 317.719 123.351C318.122 124.388 318.324 125.483 318.324 126.636C318.324 128.192 318.036 129.604 317.459 130.871C316.883 132.139 316.076 133.263 315.039 134.243C314.002 135.165 312.792 135.885 311.408 136.404C310.083 136.922 308.642 137.211 307.086 137.268C305.53 137.211 304.061 136.894 302.678 136.317C301.352 135.683 300.171 134.877 299.134 133.897C298.154 132.917 297.376 131.793 296.8 130.526C296.281 129.2 296.022 127.846 296.022 126.463C296.022 123.985 296.742 121.737 298.183 119.72C299.623 117.646 301.41 115.888 303.542 114.447C305.732 113.007 308.066 111.883 310.544 111.076C313.022 110.269 315.327 109.866 317.459 109.866ZM364.311 103.728C362.928 103.728 361.603 103.469 360.335 102.95C359.125 102.374 358.059 101.625 357.137 100.703C356.272 99.7809 355.552 98.7147 354.976 97.5045C354.457 96.2367 354.198 94.9113 354.198 93.5282C354.198 92.1451 354.457 90.8485 354.976 89.6383C355.552 88.3704 356.272 87.2755 357.137 86.3534C358.059 85.4314 359.125 84.711 360.335 84.1924C361.603 83.6737 362.928 83.4144 364.311 83.4144C365.694 83.4144 366.991 83.6737 368.201 84.1924C369.411 84.711 370.478 85.4314 371.4 86.3534C372.322 87.2755 373.042 88.3704 373.561 89.6383C374.079 90.8485 374.339 92.1451 374.339 93.5282C374.339 94.9113 374.079 96.2367 373.561 97.5045C373.042 98.7147 372.322 99.7809 371.4 100.703C370.478 101.625 369.411 102.374 368.201 102.95C366.991 103.469 365.694 103.728 364.311 103.728ZM372.091 192.159L373.82 197H356.099L357.742 192.159V118.51L354.716 115.139L372.178 109.607L372.091 192.159ZM451.532 152.309C453.088 152.309 454.529 152.597 455.854 153.174C457.237 153.692 458.419 154.441 459.398 155.421C460.436 156.343 461.213 157.438 461.732 158.706C462.308 159.916 462.597 161.242 462.597 162.682C462.481 167.926 461.213 172.71 458.793 177.032C456.43 181.354 453.376 185.071 449.63 188.183C445.884 191.237 441.677 193.629 437.01 195.358C432.342 197.029 427.703 197.864 423.092 197.864C416.926 197.864 411.192 196.769 405.89 194.58C400.646 192.332 396.065 189.249 392.146 185.33C388.285 181.412 385.23 176.772 382.983 171.413C380.793 166.054 379.698 160.233 379.698 153.952C379.698 147.44 380.678 141.475 382.637 136.058C384.654 130.641 387.449 126.002 391.022 122.141C394.653 118.222 398.946 115.196 403.902 113.064C408.916 110.932 414.419 109.866 420.413 109.866C435.108 109.866 446.864 116.666 455.681 130.266L459.225 135.712L398.543 171.327C401.251 175.361 404.709 178.645 408.916 181.181C413.18 183.717 417.906 184.984 423.092 184.984C425.167 184.984 427.357 184.696 429.662 184.12C432.025 183.486 434.301 182.593 436.491 181.44C438.681 180.288 440.698 178.876 442.542 177.205C444.444 175.533 446 173.632 447.21 171.499C445.193 170.866 443.666 169.684 442.628 167.955C441.591 166.169 441.072 164.296 441.072 162.337C441.072 159.282 441.966 156.891 443.752 155.162C445.596 153.375 448.017 152.424 451.013 152.309H451.532ZM394.048 153.952C394.048 155.219 394.134 156.689 394.307 158.36L439.516 131.822C434.157 125.829 427.789 122.832 420.413 122.832C415.918 122.832 411.999 123.725 408.656 125.512C405.372 127.298 402.634 129.661 400.444 132.6C398.312 135.539 396.698 138.882 395.604 142.628C394.566 146.316 394.048 150.09 394.048 153.952Z" fill="#FFE3F5"/>
</svg>
