<svg width="1189" height="973" viewBox="0 0 1189 973" fill="none" xmlns="http://www.w3.org/2000/svg">
<rect y="146" width="1189" height="827" rx="40" fill="#E32896"/>
<rect x="27" y="278" width="1135" height="678" rx="40" fill="#FFE3F5"/>
<path d="M436 44.795C400.921 80.3255 388 163.295 388 163.295H446.5C446.5 163.295 460.416 106.288 486.5 82.7951C519.578 53.0031 552.54 52.5555 597 54.795C634.135 56.6656 659.66 58.725 688 82.7951C715.026 105.75 730 163.295 730 163.295H802.5C802.5 163.295 782.23 79.4641 744 44.795C699.015 4.00034 655.719 1.34758 595 0.295049C530.53 -0.822506 481.301 -1.08924 436 44.795Z" fill="#E32896"/>
<path d="M439.259 184.178H456.537L469.593 222.565H469.75L482.103 184.178H499.381V240H487.888V200.44H487.732L474.05 240H464.59L450.908 200.83H450.751V240H439.259V184.178ZM524.261 218.422H538.725L531.688 197.938H531.532L524.261 218.422ZM525.434 184.178H538.021L558.896 240H546.152L541.93 227.569H521.055L516.677 240H504.324L525.434 184.178ZM568.885 194.498H552.154V184.178H597.891V194.498H581.16V240H568.885V194.498ZM616.681 194.498H599.95V184.178H645.687V194.498H628.955V240H616.681V194.498ZM652.123 184.178H693.873V194.498H664.398V206.46H691.449V215.998H664.398V229.68H694.498V240H652.123V184.178ZM702.82 184.178H715.095V229.68H742.302V240H702.82V184.178Z" fill="#FFE3F5"/>
</svg>
